<svg id="visual" viewBox="0 0 1920 1080" width="1920" height="1080" xmlns="http://www.w3.org/2000/svg" xmlns:xlink="http://www.w3.org/1999/xlink" version="1.1"><path d="M1823 1080L1823 1080L1823 1033L1804 1033L1804 986L1861 986L1861 939L1881 939L1881 892L1881 892L1881 845L1861 845L1861 798L1823 798L1823 751L1823 751L1823 704L1823 704L1823 657L1842 657L1842 610L1900 610L1900 563L1900 563L1900 517L1823 517L1823 470L1823 470L1823 423L1842 423L1842 376L1900 376L1900 329L1881 329L1881 282L1881 282L1881 235L1823 235L1823 188L1900 188L1900 141L1861 141L1861 94L1823 94L1823 47L1861 47L1861 0L1920 0L1920 47L1920 47L1920 94L1920 94L1920 141L1920 141L1920 188L1920 188L1920 235L1920 235L1920 282L1920 282L1920 329L1920 329L1920 376L1920 376L1920 423L1920 423L1920 470L1920 470L1920 517L1920 517L1920 563L1920 563L1920 610L1920 610L1920 657L1920 657L1920 704L1920 704L1920 751L1920 751L1920 798L1920 798L1920 845L1920 845L1920 892L1920 892L1920 939L1920 939L1920 986L1920 986L1920 1033L1920 1033L1920 1080L1920 1080Z" fill="#006680"></path><path d="M1746 1080L1727 1080L1727 1033L1631 1033L1631 986L1765 986L1765 939L1842 939L1842 892L1842 892L1842 845L1708 845L1708 798L1689 798L1689 751L1669 751L1669 704L1689 704L1689 657L1650 657L1650 610L1785 610L1785 563L1727 563L1727 517L1650 517L1650 470L1669 470L1669 423L1689 423L1689 376L1746 376L1746 329L1823 329L1823 282L1765 282L1765 235L1689 235L1689 188L1842 188L1842 141L1727 141L1727 94L1650 94L1650 47L1804 47L1804 0L1862 0L1862 47L1824 47L1824 94L1862 94L1862 141L1901 141L1901 188L1824 188L1824 235L1882 235L1882 282L1882 282L1882 329L1901 329L1901 376L1843 376L1843 423L1824 423L1824 470L1824 470L1824 517L1901 517L1901 563L1901 563L1901 610L1843 610L1843 657L1824 657L1824 704L1824 704L1824 751L1824 751L1824 798L1862 798L1862 845L1882 845L1882 892L1882 892L1882 939L1862 939L1862 986L1805 986L1805 1033L1824 1033L1824 1080L1824 1080Z" fill="#006283"></path><path d="M1593 1080L1669 1080L1669 1033L1516 1033L1516 986L1708 986L1708 939L1785 939L1785 892L1746 892L1746 845L1612 845L1612 798L1573 798L1573 751L1593 751L1593 704L1612 704L1612 657L1593 657L1593 610L1631 610L1631 563L1689 563L1689 517L1554 517L1554 470L1535 470L1535 423L1535 423L1535 376L1593 376L1593 329L1689 329L1689 282L1650 282L1650 235L1631 235L1631 188L1804 188L1804 141L1573 141L1573 94L1554 94L1554 47L1689 47L1689 0L1805 0L1805 47L1651 47L1651 94L1728 94L1728 141L1843 141L1843 188L1690 188L1690 235L1766 235L1766 282L1824 282L1824 329L1747 329L1747 376L1690 376L1690 423L1670 423L1670 470L1651 470L1651 517L1728 517L1728 563L1786 563L1786 610L1651 610L1651 657L1690 657L1690 704L1670 704L1670 751L1690 751L1690 798L1709 798L1709 845L1843 845L1843 892L1843 892L1843 939L1766 939L1766 986L1632 986L1632 1033L1728 1033L1728 1080L1747 1080Z" fill="#005e85"></path><path d="M1477 1080L1573 1080L1573 1033L1439 1033L1439 986L1612 986L1612 939L1708 939L1708 892L1650 892L1650 845L1401 845L1401 798L1458 798L1458 751L1477 751L1477 704L1477 704L1477 657L1362 657L1362 610L1458 610L1458 563L1458 563L1458 517L1420 517L1420 470L1343 470L1343 423L1420 423L1420 376L1401 376L1401 329L1573 329L1573 282L1439 282L1439 235L1516 235L1516 188L1650 188L1650 141L1401 141L1401 94L1324 94L1324 47L1458 47L1458 0L1690 0L1690 47L1555 47L1555 94L1574 94L1574 141L1805 141L1805 188L1632 188L1632 235L1651 235L1651 282L1690 282L1690 329L1594 329L1594 376L1536 376L1536 423L1536 423L1536 470L1555 470L1555 517L1690 517L1690 563L1632 563L1632 610L1594 610L1594 657L1613 657L1613 704L1594 704L1594 751L1574 751L1574 798L1613 798L1613 845L1747 845L1747 892L1786 892L1786 939L1709 939L1709 986L1517 986L1517 1033L1670 1033L1670 1080L1594 1080Z" fill="#005a87"></path><path d="M1343 1080L1189 1080L1189 1033L1305 1033L1305 986L1343 986L1343 939L1343 939L1343 892L1516 892L1516 845L1285 845L1285 798L1266 798L1266 751L1247 751L1247 704L1189 704L1189 657L1151 657L1151 610L1343 610L1343 563L1209 563L1209 517L1189 517L1189 470L1113 470L1113 423L1074 423L1074 376L1228 376L1228 329L1381 329L1381 282L1266 282L1266 235L1381 235L1381 188L1477 188L1477 141L1151 141L1151 94L997 94L997 47L1324 47L1324 0L1459 0L1459 47L1325 47L1325 94L1402 94L1402 141L1651 141L1651 188L1517 188L1517 235L1440 235L1440 282L1574 282L1574 329L1402 329L1402 376L1421 376L1421 423L1344 423L1344 470L1421 470L1421 517L1459 517L1459 563L1459 563L1459 610L1363 610L1363 657L1478 657L1478 704L1478 704L1478 751L1459 751L1459 798L1402 798L1402 845L1651 845L1651 892L1709 892L1709 939L1613 939L1613 986L1440 986L1440 1033L1574 1033L1574 1080L1478 1080Z" fill="#005588"></path><path d="M1247 1080L1017 1080L1017 1033L1209 1033L1209 986L1247 986L1247 939L1209 939L1209 892L1439 892L1439 845L1151 845L1151 798L1228 798L1228 751L1074 751L1074 704L1093 704L1093 657L1017 657L1017 610L1228 610L1228 563L1113 563L1113 517L1074 517L1074 470L1074 470L1074 423L978 423L978 376L1151 376L1151 329L1228 329L1228 282L1209 282L1209 235L1189 235L1189 188L1381 188L1381 141L1113 141L1113 94L940 94L940 47L1170 47L1170 0L1325 0L1325 47L998 47L998 94L1152 94L1152 141L1478 141L1478 188L1382 188L1382 235L1267 235L1267 282L1382 282L1382 329L1229 329L1229 376L1075 376L1075 423L1114 423L1114 470L1190 470L1190 517L1210 517L1210 563L1344 563L1344 610L1152 610L1152 657L1190 657L1190 704L1248 704L1248 751L1267 751L1267 798L1286 798L1286 845L1517 845L1517 892L1344 892L1344 939L1344 939L1344 986L1306 986L1306 1033L1190 1033L1190 1080L1344 1080Z" fill="#005088"></path><path d="M1151 1080L959 1080L959 1033L1093 1033L1093 986L1170 986L1170 939L1113 939L1113 892L1362 892L1362 845L1036 845L1036 798L1170 798L1170 751L978 751L978 704L997 704L997 657L997 657L997 610L1209 610L1209 563L1017 563L1017 517L959 517L959 470L978 470L978 423L959 423L959 376L1055 376L1055 329L1209 329L1209 282L1113 282L1113 235L1113 235L1113 188L1285 188L1285 141L1093 141L1093 94L825 94L825 47L1132 47L1132 0L1171 0L1171 47L941 47L941 94L1114 94L1114 141L1382 141L1382 188L1190 188L1190 235L1210 235L1210 282L1229 282L1229 329L1152 329L1152 376L979 376L979 423L1075 423L1075 470L1075 470L1075 517L1114 517L1114 563L1229 563L1229 610L1018 610L1018 657L1094 657L1094 704L1075 704L1075 751L1229 751L1229 798L1152 798L1152 845L1440 845L1440 892L1210 892L1210 939L1248 939L1248 986L1210 986L1210 1033L1018 1033L1018 1080L1248 1080Z" fill="#004a88"></path><path d="M1074 1080L863 1080L863 1033L1055 1033L1055 986L1036 986L1036 939L997 939L997 892L1305 892L1305 845L978 845L978 798L1074 798L1074 751L882 751L882 704L882 704L882 657L959 657L959 610L1055 610L1055 563L959 563L959 517L825 517L825 470L901 470L901 423L863 423L863 376L940 376L940 329L1151 329L1151 282L997 282L997 235L978 235L978 188L1170 188L1170 141L1017 141L1017 94L786 94L786 47L1036 47L1036 0L1133 0L1133 47L826 47L826 94L1094 94L1094 141L1286 141L1286 188L1114 188L1114 235L1114 235L1114 282L1210 282L1210 329L1056 329L1056 376L960 376L960 423L979 423L979 470L960 470L960 517L1018 517L1018 563L1210 563L1210 610L998 610L998 657L998 657L998 704L979 704L979 751L1171 751L1171 798L1037 798L1037 845L1363 845L1363 892L1114 892L1114 939L1171 939L1171 986L1094 986L1094 1033L960 1033L960 1080L1152 1080Z" fill="#004587"></path><path d="M997 1080L786 1080L786 1033L959 1033L959 986L786 986L786 939L748 939L748 892L1017 892L1017 845L882 845L882 798L786 798L786 751L690 751L690 704L729 704L729 657L729 657L729 610L997 610L997 563L863 563L863 517L690 517L690 470L748 470L748 423L767 423L767 376L767 376L767 329L940 329L940 282L882 282L882 235L729 235L729 188L959 188L959 141L825 141L825 94L690 94L690 47L825 47L825 0L1037 0L1037 47L787 47L787 94L1018 94L1018 141L1171 141L1171 188L979 188L979 235L998 235L998 282L1152 282L1152 329L941 329L941 376L864 376L864 423L902 423L902 470L826 470L826 517L960 517L960 563L1056 563L1056 610L960 610L960 657L883 657L883 704L883 704L883 751L1075 751L1075 798L979 798L979 845L1306 845L1306 892L998 892L998 939L1037 939L1037 986L1056 986L1056 1033L864 1033L864 1080L1075 1080Z" fill="#003f86"></path><path d="M364 1080L364 1080L364 1033L537 1033L537 986L441 986L441 939L633 939L633 892L844 892L844 845L421 845L421 798L325 798L325 751L249 751L249 704L460 704L460 657L268 657L268 610L498 610L498 563L402 563L402 517L172 517L172 470L556 470L556 423L441 423L441 376L325 376L325 329L364 329L364 282L556 282L556 235L498 235L498 188L729 188L729 141L364 141L364 94L325 94L325 47L364 47L364 0L826 0L826 47L691 47L691 94L826 94L826 141L960 141L960 188L730 188L730 235L883 235L883 282L941 282L941 329L768 329L768 376L768 376L768 423L749 423L749 470L691 470L691 517L864 517L864 563L998 563L998 610L730 610L730 657L730 657L730 704L691 704L691 751L787 751L787 798L883 798L883 845L1018 845L1018 892L749 892L749 939L787 939L787 986L960 986L960 1033L787 1033L787 1080L998 1080Z" fill="#003885"></path><path d="M249 1080L249 1080L249 1033L460 1033L460 986L345 986L345 939L517 939L517 892L709 892L709 845L287 845L287 798L287 798L287 751L153 751L153 704L364 704L364 657L172 657L172 610L383 610L383 563L325 563L325 517L153 517L153 470L460 470L460 423L325 423L325 376L191 376L191 329L249 329L249 282L479 282L479 235L421 235L421 188L613 188L613 141L229 141L229 94L268 94L268 47L287 47L287 0L365 0L365 47L326 47L326 94L365 94L365 141L730 141L730 188L499 188L499 235L557 235L557 282L365 282L365 329L326 329L326 376L442 376L442 423L557 423L557 470L173 470L173 517L403 517L403 563L499 563L499 610L269 610L269 657L461 657L461 704L250 704L250 751L326 751L326 798L422 798L422 845L845 845L845 892L634 892L634 939L442 939L442 986L538 986L538 1033L365 1033L365 1080L365 1080Z" fill="#003283"></path><path d="M0 1080L0 1080L0 1033L0 1033L0 986L0 986L0 939L0 939L0 892L0 892L0 845L0 845L0 798L0 798L0 751L0 751L0 704L0 704L0 657L0 657L0 610L0 610L0 563L0 563L0 517L0 517L0 470L0 470L0 423L0 423L0 376L0 376L0 329L0 329L0 282L0 282L0 235L0 235L0 188L0 188L0 141L0 141L0 94L0 94L0 47L0 47L0 0L288 0L288 47L269 47L269 94L230 94L230 141L614 141L614 188L422 188L422 235L480 235L480 282L250 282L250 329L192 329L192 376L326 376L326 423L461 423L461 470L154 470L154 517L326 517L326 563L384 563L384 610L173 610L173 657L365 657L365 704L154 704L154 751L288 751L288 798L288 798L288 845L710 845L710 892L518 892L518 939L346 939L346 986L461 986L461 1033L250 1033L250 1080L250 1080Z" fill="#002b80"></path></svg>