<svg id="visual" viewBox="0 0 1920 1080" width="1920" height="1080" xmlns="http://www.w3.org/2000/svg" xmlns:xlink="http://www.w3.org/1999/xlink" version="1.1"><rect x="0" y="0" width="1920" height="1080" fill="#fff"></rect><defs><linearGradient id="grad1_0" x1="43.8%" y1="0%" x2="100%" y2="100%"><stop offset="14.444444444444446%" stop-color="#006680" stop-opacity="1"></stop><stop offset="85.55555555555554%" stop-color="#006680" stop-opacity="1"></stop></linearGradient></defs><defs><linearGradient id="grad1_1" x1="43.8%" y1="0%" x2="100%" y2="100%"><stop offset="14.444444444444446%" stop-color="#006680" stop-opacity="1"></stop><stop offset="85.55555555555554%" stop-color="#3c7a91" stop-opacity="1"></stop></linearGradient></defs><defs><linearGradient id="grad1_2" x1="43.8%" y1="0%" x2="100%" y2="100%"><stop offset="14.444444444444446%" stop-color="#608fa3" stop-opacity="1"></stop><stop offset="85.55555555555554%" stop-color="#3c7a91" stop-opacity="1"></stop></linearGradient></defs><defs><linearGradient id="grad1_3" x1="43.8%" y1="0%" x2="100%" y2="100%"><stop offset="14.444444444444446%" stop-color="#608fa3" stop-opacity="1"></stop><stop offset="85.55555555555554%" stop-color="#80a5b5" stop-opacity="1"></stop></linearGradient></defs><defs><linearGradient id="grad1_4" x1="43.8%" y1="0%" x2="100%" y2="100%"><stop offset="14.444444444444446%" stop-color="#a0bbc7" stop-opacity="1"></stop><stop offset="85.55555555555554%" stop-color="#80a5b5" stop-opacity="1"></stop></linearGradient></defs><defs><linearGradient id="grad1_5" x1="43.8%" y1="0%" x2="100%" y2="100%"><stop offset="14.444444444444446%" stop-color="#a0bbc7" stop-opacity="1"></stop><stop offset="85.55555555555554%" stop-color="#bfd1d9" stop-opacity="1"></stop></linearGradient></defs><defs><linearGradient id="grad1_6" x1="43.8%" y1="0%" x2="100%" y2="100%"><stop offset="14.444444444444446%" stop-color="#dfe8ec" stop-opacity="1"></stop><stop offset="85.55555555555554%" stop-color="#bfd1d9" stop-opacity="1"></stop></linearGradient></defs><defs><linearGradient id="grad1_7" x1="43.8%" y1="0%" x2="100%" y2="100%"><stop offset="14.444444444444446%" stop-color="#dfe8ec" stop-opacity="1"></stop><stop offset="85.55555555555554%" stop-color="#ffffff" stop-opacity="1"></stop></linearGradient></defs><defs><linearGradient id="grad2_0" x1="0%" y1="0%" x2="56.3%" y2="100%"><stop offset="14.444444444444446%" stop-color="#006680" stop-opacity="1"></stop><stop offset="85.55555555555554%" stop-color="#006680" stop-opacity="1"></stop></linearGradient></defs><defs><linearGradient id="grad2_1" x1="0%" y1="0%" x2="56.3%" y2="100%"><stop offset="14.444444444444446%" stop-color="#3c7a91" stop-opacity="1"></stop><stop offset="85.55555555555554%" stop-color="#006680" stop-opacity="1"></stop></linearGradient></defs><defs><linearGradient id="grad2_2" x1="0%" y1="0%" x2="56.3%" y2="100%"><stop offset="14.444444444444446%" stop-color="#3c7a91" stop-opacity="1"></stop><stop offset="85.55555555555554%" stop-color="#608fa3" stop-opacity="1"></stop></linearGradient></defs><defs><linearGradient id="grad2_3" x1="0%" y1="0%" x2="56.3%" y2="100%"><stop offset="14.444444444444446%" stop-color="#80a5b5" stop-opacity="1"></stop><stop offset="85.55555555555554%" stop-color="#608fa3" stop-opacity="1"></stop></linearGradient></defs><defs><linearGradient id="grad2_4" x1="0%" y1="0%" x2="56.3%" y2="100%"><stop offset="14.444444444444446%" stop-color="#80a5b5" stop-opacity="1"></stop><stop offset="85.55555555555554%" stop-color="#a0bbc7" stop-opacity="1"></stop></linearGradient></defs><defs><linearGradient id="grad2_5" x1="0%" y1="0%" x2="56.3%" y2="100%"><stop offset="14.444444444444446%" stop-color="#bfd1d9" stop-opacity="1"></stop><stop offset="85.55555555555554%" stop-color="#a0bbc7" stop-opacity="1"></stop></linearGradient></defs><defs><linearGradient id="grad2_6" x1="0%" y1="0%" x2="56.3%" y2="100%"><stop offset="14.444444444444446%" stop-color="#bfd1d9" stop-opacity="1"></stop><stop offset="85.55555555555554%" stop-color="#dfe8ec" stop-opacity="1"></stop></linearGradient></defs><defs><linearGradient id="grad2_7" x1="0%" y1="0%" x2="56.3%" y2="100%"><stop offset="14.444444444444446%" stop-color="#ffffff" stop-opacity="1"></stop><stop offset="85.55555555555554%" stop-color="#dfe8ec" stop-opacity="1"></stop></linearGradient></defs><g transform="translate(1920, 0)"><path d="M0 702C-71.4 623.9 -142.8 545.8 -206.6 498.9C-270.5 452 -326.8 436.3 -408 408C-489.2 379.7 -595.4 338.7 -648.6 268.6C-701.7 198.5 -701.9 99.3 -702 0L0 0Z" fill="#eff3f5"></path><path d="M0 614.3C-62.5 545.9 -125 477.6 -180.8 436.5C-236.7 395.5 -285.9 381.8 -357 357C-428.1 332.2 -521 296.4 -567.5 235.1C-614 173.7 -614.1 86.9 -614.2 0L0 0Z" fill="#cfdce3"></path><path d="M0 526.5C-53.6 467.9 -107.1 409.3 -155 374.2C-202.9 339 -245.1 327.2 -306 306C-366.9 284.8 -446.6 254.1 -486.4 201.5C-526.3 148.9 -526.4 74.5 -526.5 0L0 0Z" fill="#afc6d0"></path><path d="M0 438.8C-44.6 389.9 -89.3 341.1 -129.2 311.8C-169.1 282.5 -204.2 272.7 -255 255C-305.8 237.3 -372.1 211.7 -405.4 167.9C-438.6 124.1 -438.7 62 -438.7 0L0 0Z" fill="#90b0be"></path><path d="M0 351C-35.7 311.9 -71.4 272.9 -103.3 249.4C-135.2 226 -163.4 218.2 -204 204C-244.6 189.8 -297.7 169.4 -324.3 134.3C-350.9 99.3 -350.9 49.6 -351 0L0 0Z" fill="#709aac"></path><path d="M0 263.3C-26.8 234 -53.6 204.7 -77.5 187.1C-101.4 169.5 -122.5 163.6 -153 153C-183.5 142.4 -223.3 127 -243.2 100.7C-263.1 74.5 -263.2 37.2 -263.2 0L0 0Z" fill="#4f859a"></path><path d="M0 175.5C-17.9 156 -35.7 136.4 -51.7 124.7C-67.6 113 -81.7 109.1 -102 102C-122.3 94.9 -148.9 84.7 -162.1 67.2C-175.4 49.6 -175.5 24.8 -175.5 0L0 0Z" fill="#277089"></path><path d="M0 87.8C-8.9 78 -17.9 68.2 -25.8 62.4C-33.8 56.5 -40.8 54.5 -51 51C-61.2 47.5 -74.4 42.3 -81.1 33.6C-87.7 24.8 -87.7 12.4 -87.7 0L0 0Z" fill="#006680"></path></g><g transform="translate(0, 1080)"><path d="M0 -702C97.2 -683.3 194.4 -664.7 251 -606.1C307.7 -547.5 323.7 -449 393.9 -393.9C464 -338.8 588.2 -327.1 648.6 -268.6C708.9 -210.2 705.5 -105.1 702 0L0 0Z" fill="#eff3f5"></path><path d="M0 -614.2C85.1 -597.9 170.1 -581.6 219.7 -530.3C269.2 -479 283.3 -392.8 344.6 -344.6C406 -296.4 514.7 -286.2 567.5 -235.1C620.3 -184 617.3 -92 614.3 0L0 0Z" fill="#cfdce3"></path><path d="M0 -526.5C72.9 -512.5 145.8 -498.5 188.3 -454.5C230.8 -410.6 242.8 -336.7 295.4 -295.4C348 -254.1 441.1 -245.3 486.4 -201.5C531.7 -157.7 529.1 -78.8 526.5 0L0 0Z" fill="#afc6d0"></path><path d="M0 -438.7C60.8 -427.1 121.5 -415.4 156.9 -378.8C192.3 -342.2 202.3 -280.6 246.2 -246.2C290 -211.7 367.6 -204.4 405.4 -167.9C443.1 -131.4 440.9 -65.7 438.8 0L0 0Z" fill="#90b0be"></path><path d="M0 -351C48.6 -341.7 97.2 -332.3 125.5 -303C153.8 -273.7 161.9 -224.5 196.9 -196.9C232 -169.4 294.1 -163.5 324.3 -134.3C354.5 -105.1 352.7 -52.6 351 0L0 0Z" fill="#709aac"></path><path d="M0 -263.2C36.5 -256.2 72.9 -249.2 94.1 -227.3C115.4 -205.3 121.4 -168.4 147.7 -147.7C174 -127 220.6 -122.6 243.2 -100.7C265.8 -78.8 264.5 -39.4 263.3 0L0 0Z" fill="#4f859a"></path><path d="M0 -175.5C24.3 -170.8 48.6 -166.2 62.8 -151.5C76.9 -136.9 80.9 -112.2 98.5 -98.5C116 -84.7 147 -81.8 162.1 -67.2C177.2 -52.6 176.4 -26.3 175.5 0L0 0Z" fill="#277089"></path><path d="M0 -87.7C12.2 -85.4 24.3 -83.1 31.4 -75.8C38.5 -68.4 40.5 -56.1 49.2 -49.2C58 -42.3 73.5 -40.9 81.1 -33.6C88.6 -26.3 88.2 -13.1 87.8 0L0 0Z" fill="#006680"></path></g></svg>