<svg id="visual" viewBox="0 0 960 540" width="960" height="540" xmlns="http://www.w3.org/2000/svg" xmlns:xlink="http://www.w3.org/1999/xlink" version="1.1"><path d="M940 540L901 540L901 517L949 517L949 493L892 493L892 470L930 470L930 446L959 446L959 423L949 423L949 399L949 399L949 376L940 376L940 352L882 352L882 329L901 329L901 305L911 305L911 282L921 282L921 258L940 258L940 235L921 235L921 211L901 211L901 188L959 188L959 164L940 164L940 141L959 141L959 117L901 117L901 94L949 94L949 70L949 70L949 47L959 47L959 23L892 23L892 0L960 0L960 23L960 23L960 47L960 47L960 70L960 70L960 94L960 94L960 117L960 117L960 141L960 141L960 164L960 164L960 188L960 188L960 211L960 211L960 235L960 235L960 258L960 258L960 282L960 282L960 305L960 305L960 329L960 329L960 352L960 352L960 376L960 376L960 399L960 399L960 423L960 423L960 446L960 446L960 470L960 470L960 493L960 493L960 517L960 517L960 540L960 540Z" fill="#7d3737"></path><path d="M940 540L844 540L844 517L940 517L940 493L892 493L892 470L882 470L882 446L892 446L892 423L949 423L949 399L921 399L921 376L901 376L901 352L805 352L805 329L901 329L901 305L873 305L873 282L882 282L882 258L892 258L892 235L901 235L901 211L844 211L844 188L940 188L940 164L911 164L911 141L901 141L901 117L844 117L844 94L892 94L892 70L940 70L940 47L882 47L882 23L882 23L882 0L893 0L893 23L960 23L960 47L950 47L950 70L950 70L950 94L902 94L902 117L960 117L960 141L941 141L941 164L960 164L960 188L902 188L902 211L922 211L922 235L941 235L941 258L922 258L922 282L912 282L912 305L902 305L902 329L883 329L883 352L941 352L941 376L950 376L950 399L950 399L950 423L960 423L960 446L931 446L931 470L893 470L893 493L950 493L950 517L902 517L902 540L941 540Z" fill="#7f3838"></path><path d="M882 540L748 540L748 517L911 517L911 493L777 493L777 470L815 470L815 446L738 446L738 423L882 423L882 399L825 399L825 376L805 376L805 352L681 352L681 329L805 329L805 305L873 305L873 282L786 282L786 258L844 258L844 235L882 235L882 211L719 211L719 188L940 188L940 164L844 164L844 141L729 141L729 117L719 117L719 94L853 94L853 70L892 70L892 47L844 47L844 23L757 23L757 0L883 0L883 23L883 23L883 47L941 47L941 70L893 70L893 94L845 94L845 117L902 117L902 141L912 141L912 164L941 164L941 188L845 188L845 211L902 211L902 235L893 235L893 258L883 258L883 282L874 282L874 305L902 305L902 329L806 329L806 352L902 352L902 376L922 376L922 399L950 399L950 423L893 423L893 446L883 446L883 470L893 470L893 493L941 493L941 517L845 517L845 540L941 540Z" fill="#823939"></path><path d="M556 540L469 540L469 517L585 517L585 493L642 493L642 470L805 470L805 446L393 446L393 423L441 423L441 399L805 399L805 376L642 376L642 352L604 352L604 329L681 329L681 305L757 305L757 282L604 282L604 258L671 258L671 235L690 235L690 211L613 211L613 188L642 188L642 164L825 164L825 141L469 141L469 117L700 117L700 94L681 94L681 70L604 70L604 47L805 47L805 23L565 23L565 0L758 0L758 23L845 23L845 47L893 47L893 70L854 70L854 94L720 94L720 117L730 117L730 141L845 141L845 164L941 164L941 188L720 188L720 211L883 211L883 235L845 235L845 258L787 258L787 282L874 282L874 305L806 305L806 329L682 329L682 352L806 352L806 376L826 376L826 399L883 399L883 423L739 423L739 446L816 446L816 470L778 470L778 493L912 493L912 517L749 517L749 540L883 540Z" fill="#843a3a"></path><path d="M460 540L277 540L277 517L537 517L537 493L383 493L383 470L575 470L575 446L335 446L335 423L431 423L431 399L479 399L479 376L431 376L431 352L421 352L421 329L469 329L469 305L460 305L460 282L527 282L527 258L431 258L431 235L421 235L421 211L373 211L373 188L402 188L402 164L508 164L508 141L441 141L441 117L354 117L354 94L613 94L613 70L546 70L546 47L585 47L585 23L460 23L460 0L566 0L566 23L806 23L806 47L605 47L605 70L682 70L682 94L701 94L701 117L470 117L470 141L826 141L826 164L643 164L643 188L614 188L614 211L691 211L691 235L672 235L672 258L605 258L605 282L758 282L758 305L682 305L682 329L605 329L605 352L643 352L643 376L806 376L806 399L442 399L442 423L394 423L394 446L806 446L806 470L643 470L643 493L586 493L586 517L470 517L470 540L557 540Z" fill="#863b3b"></path><path d="M412 540L249 540L249 517L508 517L508 493L306 493L306 470L498 470L498 446L268 446L268 423L345 423L345 399L469 399L469 376L345 376L345 352L354 352L354 329L402 329L402 305L402 305L402 282L498 282L498 258L364 258L364 235L412 235L412 211L297 211L297 188L383 188L383 164L489 164L489 141L402 141L402 117L335 117L335 94L565 94L565 70L517 70L517 47L565 47L565 23L460 23L460 0L461 0L461 23L586 23L586 47L547 47L547 70L614 70L614 94L355 94L355 117L442 117L442 141L509 141L509 164L403 164L403 188L374 188L374 211L422 211L422 235L432 235L432 258L528 258L528 282L461 282L461 305L470 305L470 329L422 329L422 352L432 352L432 376L480 376L480 399L432 399L432 423L336 423L336 446L576 446L576 470L384 470L384 493L538 493L538 517L278 517L278 540L461 540Z" fill="#893c3c"></path><path d="M402 540L181 540L181 517L412 517L412 493L239 493L239 470L412 470L412 446L268 446L268 423L277 423L277 399L383 399L383 376L287 376L287 352L297 352L297 329L393 329L393 305L373 305L373 282L460 282L460 258L354 258L354 235L402 235L402 211L249 211L249 188L345 188L345 164L383 164L383 141L373 141L373 117L239 117L239 94L479 94L479 70L517 70L517 47L479 47L479 23L450 23L450 0L461 0L461 23L566 23L566 47L518 47L518 70L566 70L566 94L336 94L336 117L403 117L403 141L490 141L490 164L384 164L384 188L298 188L298 211L413 211L413 235L365 235L365 258L499 258L499 282L403 282L403 305L403 305L403 329L355 329L355 352L346 352L346 376L470 376L470 399L346 399L346 423L269 423L269 446L499 446L499 470L307 470L307 493L509 493L509 517L250 517L250 540L413 540Z" fill="#8b3e3e"></path><path d="M364 540L124 540L124 517L191 517L191 493L191 493L191 470L287 470L287 446L28 446L28 423L162 423L162 399L229 399L229 376L133 376L133 352L268 352L268 329L229 329L229 305L297 305L297 282L268 282L268 258L325 258L325 235L393 235L393 211L181 211L181 188L316 188L316 164L325 164L325 141L172 141L172 117L229 117L229 94L258 94L258 70L268 70L268 47L325 47L325 23L181 23L181 0L451 0L451 23L480 23L480 47L518 47L518 70L480 70L480 94L240 94L240 117L374 117L374 141L384 141L384 164L346 164L346 188L250 188L250 211L403 211L403 235L355 235L355 258L461 258L461 282L374 282L374 305L394 305L394 329L298 329L298 352L288 352L288 376L384 376L384 399L278 399L278 423L269 423L269 446L413 446L413 470L240 470L240 493L413 493L413 517L182 517L182 540L403 540Z" fill="#8e3f3f"></path><path d="M287 540L124 540L124 517L181 517L181 493L181 493L181 470L277 470L277 446L18 446L18 423L124 423L124 399L210 399L210 376L133 376L133 352L191 352L191 329L229 329L229 305L201 305L201 282L258 282L258 258L258 258L258 235L287 235L287 211L133 211L133 188L172 188L172 164L210 164L210 141L153 141L153 117L210 117L210 94L220 94L220 70L153 70L153 47L239 47L239 23L95 23L95 0L182 0L182 23L326 23L326 47L269 47L269 70L259 70L259 94L230 94L230 117L173 117L173 141L326 141L326 164L317 164L317 188L182 188L182 211L394 211L394 235L326 235L326 258L269 258L269 282L298 282L298 305L230 305L230 329L269 329L269 352L134 352L134 376L230 376L230 399L163 399L163 423L29 423L29 446L288 446L288 470L192 470L192 493L192 493L192 517L125 517L125 540L365 540Z" fill="#904040"></path><path d="M191 540L76 540L76 517L95 517L95 493L105 493L105 470L191 470L191 446L0 446L0 423L124 423L124 399L210 399L210 376L76 376L76 352L124 352L124 329L229 329L229 305L133 305L133 282L153 282L153 258L191 258L191 235L249 235L249 211L66 211L66 188L172 188L172 164L114 164L114 141L153 141L153 117L133 117L133 94L133 94L133 70L114 70L114 47L153 47L153 23L95 23L95 0L96 0L96 23L240 23L240 47L154 47L154 70L221 70L221 94L211 94L211 117L154 117L154 141L211 141L211 164L173 164L173 188L134 188L134 211L288 211L288 235L259 235L259 258L259 258L259 282L202 282L202 305L230 305L230 329L192 329L192 352L134 352L134 376L211 376L211 399L125 399L125 423L19 423L19 446L278 446L278 470L182 470L182 493L182 493L182 517L125 517L125 540L288 540Z" fill="#924141"></path><path d="M114 540L9 540L9 517L66 517L66 493L57 493L57 470L114 470L114 446L0 446L0 423L28 423L28 399L124 399L124 376L9 376L9 352L124 352L124 329L210 329L210 305L57 305L57 282L133 282L133 258L105 258L105 235L162 235L162 211L47 211L47 188L153 188L153 164L47 164L47 141L153 141L153 117L124 117L124 94L47 94L47 70L28 70L28 47L66 47L66 23L66 23L66 0L96 0L96 23L154 23L154 47L115 47L115 70L134 70L134 94L134 94L134 117L154 117L154 141L115 141L115 164L173 164L173 188L67 188L67 211L250 211L250 235L192 235L192 258L154 258L154 282L134 282L134 305L230 305L230 329L125 329L125 352L77 352L77 376L211 376L211 399L125 399L125 423L0 423L0 446L192 446L192 470L106 470L106 493L96 493L96 517L77 517L77 540L192 540Z" fill="#954242"></path><path d="M0 540L0 540L0 517L0 517L0 493L0 493L0 470L0 470L0 446L0 446L0 423L0 423L0 399L0 399L0 376L0 376L0 352L0 352L0 329L0 329L0 305L0 305L0 282L0 282L0 258L0 258L0 235L0 235L0 211L0 211L0 188L0 188L0 164L0 164L0 141L0 141L0 117L0 117L0 94L0 94L0 70L0 70L0 47L0 47L0 23L0 23L0 0L67 0L67 23L67 23L67 47L29 47L29 70L48 70L48 94L125 94L125 117L154 117L154 141L48 141L48 164L154 164L154 188L48 188L48 211L163 211L163 235L106 235L106 258L134 258L134 282L58 282L58 305L211 305L211 329L125 329L125 352L10 352L10 376L125 376L125 399L29 399L29 423L0 423L0 446L115 446L115 470L58 470L58 493L67 493L67 517L10 517L10 540L115 540Z" fill="#974343"></path></svg>